# xmcd
#
# Track frame offsets: 
#        150
#        22875
#        45318
#        69699
#        95522
#        117879
#        141074
#        159818
#        176789
#        197980
#        214843
#        236209
#        257782
#        285117
#        312952
#        329733
#
# Disc length: 4738 seconds
#
# Revision: 1
# Processed by: cddbd v1.5.2PL0 Copyright (c) Steve Scherf et al.
# Submitted via: ExactAudioCopy v0.99pb4
#
DISCID=e5128010
DTITLE=Johnny "Guitar" Watson - In Loving Memory: The Very Best of Joh
DTITLE=nny "Guitar" Watson
DYEAR=1996
DGENRE=Blues
TTITLE0=A Real Mother For Ya
TTITLE1=Tarzan
TTITLE2=Lover Jones
TTITLE3=Superman Lover
TTITLE4=Ain't That A Bitch
TTITLE5=Funk Beyond The Call Of Duty
TTITLE6=It's All About The Dollar Bill
TTITLE7=Gangster Of Love
TTITLE8=I Need It
TTITLE9=Love That Will Not Die
TTITLE10=Love Jones
TTITLE11=Telephone Bill
TTITLE12=Lone Ranger
TTITLE13=What The Hell Is This?
TTITLE14=I Don't Want To Be President
TTITLE15=I Want To Ta Ta You Baby
EXTD=YEAR: 1996
EXTT0=
EXTT1=
EXTT2=
EXTT3=
EXTT4=
EXTT5=
EXTT6=
EXTT7=
EXTT8=
EXTT9=
EXTT10=
EXTT11=
EXTT12=
EXTT13=
EXTT14=
EXTT15=
PLAYORDER=
